<svg class="logo-svg" xmlns="http://www.w3.org/2000/svg" width="259.576" preserveAspectRatio="xMinYMin meet" viewBox="0 0 259.576 39.318"><path class="path trans" d="M36.987 0C26.139 0 14.885 4.354 6.834 11.86c-1.659 1.548-2.028 2.36-1.729 2.606.303.252 1.016-.4 1.198-.582C16.31 4.088 29.211 1.923 36.317 1.923c6.173 0 9.607 2.011 9.607 5.122 0 6.787-11.429 13.607-17.879 13.607-.157 0-.341-.003-.511-.006-.142-.001-.27-.004-.362-.004a1.8 1.8 0 0 0-1.834 1.765c0 .641.493 1.852 2.356 1.852 5.863 0 20.538-8.258 20.538-16.98C48.233 5.569 47.421 0 36.987 0zM5.218 27.028c-.244 0-.35.013-.463.025-.117.016-.24.031-.572.031-2.004 0-2.817-2.068-2.817-3.966 0-3.424 1.655-4.974.787-4.974C1.314 18.146 0 21.06 0 23.515c0 4.346 2.64 6.125 4.573 6.125.857 0 1.771-.402 1.771-1.53 0-.858-.737-1.082-1.126-1.082z"></path><path class="path trans" d="M20.028 15.518c0-1.03-.885-1.776-2.104-1.776-1.45 0-2.208.908-2.208 1.809 0 1.153 1.192 2.082 2.178 2.082 1.276-.001 2.134-1.095 2.134-2.115zM25.463 37.129c-.381-.849-3.253-6.821-4.467-13.83-.195-.95-.367-2.346-1.742-2.346-.954 0-1.6.653-1.6 1.6 0 1.409 1.126 4.67 2.546 8.008.961 2.184 4.447 8.757 5.623 8.757.827 0-.033-1.433-.353-2.167a.04.04 0 0 0-.007-.022zM67.732 28.546a4.384 4.384 0 0 0-1.39-.591 7.009 7.009 0 0 0-1.664-.185h-4.62c-1.444 0-2.427-.015-2.919-.041l-.133-.01.017.135c.046.443.066 1.312.066 2.74v4.822c0 1.062-.027 1.875-.083 2.485l-.01.136.135-.008c.316-.033.54-.047.63-.047.1 0 .318.014.649.047l.136.008-.014-.137c-.048-.514-.073-1.324-.073-2.483v-.357h6.22a7.12 7.12 0 0 0 1.674-.19 4.272 4.272 0 0 0 1.387-.603c.423-.272.746-.647.99-1.147.233-.484.351-1.059.351-1.712 0-.666-.117-1.242-.351-1.719a2.814 2.814 0 0 0-.998-1.143zm-.841 4.648c-.535.374-1.263.566-2.159.566h-6.283v-3.449l.023-1.217 2.06-.025h4.2c.907 0 1.635.19 2.174.558.518.361.781.959.781 1.782 0 .833-.26 1.419-.796 1.785zM84.295 35.327l-4.752-7.544-.035-.06-.071.009c-.278.024-.709.039-1.277.039h-.06l-4.764 7.542a73.432 73.432 0 0 1-1.655 2.532l-.146.212.251-.03a6.47 6.47 0 0 1 1.472 0l.077.009.037-.069c.42-.799.854-1.542 1.294-2.205l.151-.247h7.979l.154.237c.518.79.945 1.516 1.302 2.215l.037.069.079-.009c.493-.06.98-.056 1.473 0l.25.03-.145-.212c-.205-.294-.776-1.165-1.651-2.518zm-8.73-1.11l3.24-5.148 2.626 4.155.62.993h-6.486zM101.464 27.853l.01-.134-.132.011a8.276 8.276 0 0 1-.632.041c-.101 0-.316-.015-.65-.041l-.132-.011.01.134c.058.636.086 1.464.086 2.47v4.538l.008 1.312-9.46-8.375-.034-.027h-.581c-.108 0-.332-.015-.664-.041l-.137-.011.015.136c.055.523.083 1.404.083 2.612v4.95c0 1.007-.028 1.845-.085 2.485l-.01.136.136-.01c.338-.033.543-.045.635-.045.1 0 .332.014.645.045l.135.01-.012-.136c-.046-.539-.071-1.375-.071-2.485v-4.155l-.027-1.677 9.462 8.368.03.031h.604c.12 0 .334.014.64.043l.136.012-.01-.136c-.045-.552-.07-1.455-.07-2.613v-4.967c.002-1.074.026-1.927.072-2.47zM112.291 27.554c-2.153 0-3.852.497-5.044 1.479-1.189.983-1.793 2.277-1.793 3.843 0 1.567.604 2.864 1.793 3.847 1.193.978 2.891 1.475 5.044 1.475 2.148 0 3.838-.497 5.025-1.477 1.185-.986 1.787-2.277 1.787-3.845 0-1.565-.602-2.858-1.787-3.843-1.184-.982-2.877-1.479-5.025-1.479zm4.031 8.229c-.926.739-2.279 1.115-4.031 1.115-1.766 0-3.131-.376-4.056-1.115-.918-.733-1.384-1.715-1.384-2.906 0-1.202.453-2.157 1.384-2.909.932-.738 2.293-1.113 4.056-1.113 1.744 0 3.1.375 4.031 1.113.931.752 1.382 1.702 1.382 2.909 0 1.193-.465 2.173-1.382 2.906zM134.291 33.419a2.673 2.673 0 0 0-.747-.476 5.837 5.837 0 0 0-.882-.317 7.868 7.868 0 0 0-1.081-.199c-.473-.056-.836-.09-1.138-.116a46.863 46.863 0 0 0-1.209-.063l-1.027-.047c-.298-.021-.624-.043-.95-.082a8.948 8.948 0 0 1-.896-.126 5.283 5.283 0 0 1-.731-.201 2.032 2.032 0 0 1-.567-.288 1.299 1.299 0 0 1-.338-.396.984.984 0 0 1-.134-.514c0-.362.132-.661.399-.905.281-.261.639-.44 1.097-.551.458-.11.873-.185 1.27-.226.366-.037.749-.057 1.142-.057 1.88 0 3.646.248 5.249.735l.124.04.02-.13c.061-.367.147-.745.266-1.153l.033-.119-.117-.023a22.63 22.63 0 0 0-5.405-.65 12.738 12.738 0 0 0-2.384.205 4.956 4.956 0 0 0-2.138.889 2.244 2.244 0 0 0-.706.847 2.591 2.591 0 0 0-.248 1.161c0 .324.042.606.125.856.085.263.231.496.432.692.162.161.35.321.574.481.201.139.471.259.825.364.329.088.62.167.871.232.254.059.589.11 1.027.153.43.037.774.067 1.031.084.259.02.616.04 1.086.071.416.018.732.037.935.053.208.012.49.035.84.063.352.026.605.055.771.079.157.033.373.072.625.131.23.05.412.115.527.182.13.074.249.154.363.243a.764.764 0 0 1 .236.305 1 1 0 0 1 .072.399c0 .355-.139.656-.423.913-.295.271-.67.459-1.157.578-.471.127-.94.22-1.424.277-.455.06-.91.085-1.392.085a15.54 15.54 0 0 1-5.744-1.104l-.123-.047-.031.123c-.1.427-.217.794-.352 1.132l-.048.11.113.04a17.874 17.874 0 0 0 5.998 1.047c.555 0 1.1-.024 1.621-.082a9.929 9.929 0 0 0 1.573-.295 5.848 5.848 0 0 0 1.409-.552c.409-.236.735-.538.992-.928.253-.401.383-.85.383-1.338 0-.327-.057-.629-.176-.903a2.273 2.273 0 0 0-.461-.682zM148.712 27.853l.008-.134-.133.011a8.013 8.013 0 0 1-.627.041c-.101 0-.312-.015-.652-.041l-.132-.011.01.134c.059.646.087 1.479.087 2.47v5.094c0 .992-.028 1.829-.088 2.485l-.009.136.137-.01c.335-.031.542-.045.633-.045a8.2 8.2 0 0 1 .642.045l.133.01-.008-.136c-.043-.531-.066-1.367-.066-2.485v-5.094c-.001-1.116.022-1.95.065-2.47zM159.544 27.554c-2.153 0-3.85.497-5.043 1.479-1.188.983-1.79 2.278-1.79 3.843 0 1.567.602 2.859 1.794 3.847 1.191.978 2.886 1.475 5.04 1.475 2.15 0 3.843-.497 5.026-1.477 1.186-.986 1.789-2.279 1.789-3.845 0-1.562-.603-2.858-1.789-3.843-1.181-.982-2.877-1.479-5.027-1.479zm4.033 8.229c-.924.739-2.28 1.115-4.033 1.115-1.764 0-3.129-.376-4.053-1.115-.917-.733-1.383-1.713-1.383-2.906 0-1.207.454-2.157 1.383-2.909.93-.738 2.293-1.113 4.053-1.113 1.747 0 3.103.375 4.033 1.113.931.752 1.386 1.707 1.386 2.909 0 1.191-.465 2.173-1.386 2.906zM182.261 35.777l-5.046-7.995-.034-.06-.073.009c-.278.024-.706.039-1.269.039h-.057l-4.775 7.542a90.81 90.81 0 0 1-1.649 2.534l-.141.209.249-.03c.475-.056.954-.06 1.468 0l.081.009.034-.069c.443-.849.867-1.569 1.294-2.205l.152-.247h7.973l.152.237c.488.734.927 1.479 1.305 2.215l.04.069.077-.009c.485-.06.951-.06 1.476 0l.253.03-.148-.212c-.182-.248-.625-.933-1.362-2.066zm-9.021-1.56l3.242-5.148 2.628 4.155.619.993h-6.489zM199.141 27.855l.011-.136-.135.011a9.773 9.773 0 0 1-.636.041c-.1 0-.328-.018-.644-.041l-.135-.011.011.136c.057.627.088 1.456.088 2.468v4.538l.01 1.312-9.462-8.375-.031-.027h-.586c-.114 0-.331-.015-.661-.041l-.138-.011.015.136c.053.495.079 1.324.079 2.612v4.95c0 1.076-.026 1.889-.08 2.485l-.011.136.135-.01c.406-.036.566-.045.631-.045.1 0 .313.014.646.045l.136.01-.013-.138c-.048-.521-.069-1.361-.069-2.483v-4.155l-.021-1.679 9.46 8.37.031.031h.595c.122 0 .339.014.65.044l.135.011-.011-.138c-.051-.534-.076-1.414-.076-2.611v-4.967c-.001-1.112.025-1.942.076-2.468zM215.636 27.855l.014-.136-.139.011a10.12 10.12 0 0 1-.633.041c-.099 0-.329-.018-.646-.041l-.133-.011.011.136c.059.627.089 1.456.089 2.468v4.538l.009 1.312-9.463-8.375-.034-.027h-.583c-.116 0-.336-.015-.661-.041l-.139-.011.016.136c.054.499.081 1.352.081 2.612v4.95c0 1.061-.026 1.875-.081 2.485l-.011.136.135-.01a8.21 8.21 0 0 1 .627-.045c.103 0 .312.014.649.045l.137.01-.015-.138c-.047-.521-.073-1.361-.073-2.483v-4.155l-.021-1.679 9.463 8.37.034.031h.596c.118 0 .33.014.646.044l.139.011-.014-.138c-.049-.534-.073-1.414-.073-2.611v-4.967c-.001-1.112.024-1.942.073-2.468zM221.364 27.855l.016-.136-.137.011a9.79 9.79 0 0 1-.637.041c-.101 0-.318-.015-.643-.041l-.135-.011.01.134c.054.602.081 1.408.081 2.47v5.094c0 1.061-.027 1.875-.081 2.485l-.01.136.135-.01c.315-.031.542-.045.633-.045.101 0 .312.014.646.045l.137.01-.016-.138c-.049-.521-.07-1.361-.07-2.483v-5.094c.001-1.124.022-1.957.071-2.468zM236.286 29.111c-1.229-.89-3.122-1.34-5.633-1.34h-2.036c-1.449 0-2.432-.015-2.918-.041l-.133-.009.012.134c.044.461.067 1.356.067 2.74v4.562c0 1.368-.022 2.294-.067 2.744l-.012.132.133-.004c.486-.031 1.469-.045 2.918-.045h2.036c2.516 0 4.413-.454 5.633-1.349 1.229-.905 1.852-2.17 1.852-3.758 0-1.598-.623-2.864-1.852-3.766zm-5.633 7.57h-1.551l-2.061-.022-.023-1.214v-5.132l.023-1.217 2.061-.026h1.551c4.095 0 6.089 1.248 6.089 3.808 0 2.557-1.994 3.803-6.089 3.803zM243.657 27.853l.01-.134-.134.011a8.147 8.147 0 0 1-.631.041c-.1 0-.319-.015-.65-.041l-.134-.011.01.136c.061.627.089 1.456.089 2.468v5.094c0 1.014-.028 1.851-.089 2.483l-.01.138.135-.01a8.9 8.9 0 0 1 .638-.045c.098 0 .332.014.643.045l.134.01-.01-.136c-.047-.552-.07-1.412-.07-2.485v-5.094c-.001-1.074.022-1.927.069-2.47zM259.39 34.102a2.039 2.039 0 0 0-.458-.682 2.53 2.53 0 0 0-.748-.476 6.085 6.085 0 0 0-.889-.318 7.453 7.453 0 0 0-1.076-.198 22.859 22.859 0 0 0-1.126-.114c-.326-.023-.73-.044-1.222-.065-.416-.017-.758-.036-1.024-.046a18.3 18.3 0 0 1-.95-.082 9.358 9.358 0 0 1-.896-.125 5.156 5.156 0 0 1-.721-.202 1.99 1.99 0 0 1-.575-.286 1.324 1.324 0 0 1-.335-.397.952.952 0 0 1-.135-.514c0-.362.131-.662.401-.905.267-.255.634-.439 1.096-.551.44-.105.867-.185 1.267-.226.361-.036.747-.057 1.139-.057 1.885 0 3.649.249 5.244.736l.123.04.025-.13c.075-.424.162-.803.269-1.154l.038-.115-.121-.028a22.662 22.662 0 0 0-5.401-.648c-.384 0-.767.012-1.175.044-.375.027-.782.081-1.21.158a5 5 0 0 0-2.138.89 2.206 2.206 0 0 0-.71.852 2.678 2.678 0 0 0-.246 1.156c0 .307.043.595.131.857.086.267.229.499.425.693.188.178.375.338.576.477.198.14.465.261.821.365l.041.009c.318.088.591.165.834.225.254.063.59.113 1.024.154.434.037.773.067 1.032.082.255.021.615.042 1.082.074.426.017.735.035.944.052.209.012.476.035.832.062.349.027.605.053.778.081.223.04.422.082.627.131.222.051.398.112.522.18.141.08.26.161.364.249a.697.697 0 0 1 .235.297c.044.117.067.249.067.401 0 .36-.135.659-.416.915-.285.26-.675.457-1.155.576-.477.127-.941.22-1.426.277a10.84 10.84 0 0 1-1.39.087c-1.966 0-3.9-.374-5.748-1.106l-.126-.048-.029.128a7.032 7.032 0 0 1-.346 1.128l-.044.107.109.043a17.762 17.762 0 0 0 6.001 1.045c.546 0 1.091-.022 1.61-.078a10.007 10.007 0 0 0 1.583-.298 5.89 5.89 0 0 0 1.399-.55 2.89 2.89 0 0 0 .99-.929c.261-.396.391-.847.391-1.337a2.106 2.106 0 0 0-.184-.906z"></path></svg>